
        <svg xmlns="http://www.w3.org/2000/svg" xmlns:xlink="http://www.w3.org/1999/xlink" version="1.1" width="3230.769230769231" 
        height="755.8316231473625" viewBox="0 0 3230.769230769231 755.8316231473625">
			
			<g transform="scale(11.538461538461538) translate(10, 10)">
				<defs id="SvgjsDefs3067"></defs><g id="SvgjsG3068" featureKey="monogramFeature-0" transform="matrix(1.038263037078998,0,0,1.038263037078998,-2.159188991664694,-16.912266151543335)" fill="#2b3595"><path d="M6.4746 41.016 l-2.9883 0 l5.7422 -24.727 l31.377 0 l-2.5195 11.104 l-16.729 0 l-0.87891 3.75 l15.381 0 l-2.2559 9.873 l2.9883 0 l-0.26367 1.1719 l-15.41 0 l-1.5527 6.8555 l16.67 0 l-2.5195 11.074 l-31.436 0 z"></path></g><g id="SvgjsG3069" featureKey="nameFeature-0" transform="matrix(0.7344205976647944,0,0,0.7344205976647944,58.98115475356802,-4.60228165034403)" fill="#2d6efa"><path d="M4.3164 27.344 l-1.9922 0 l3.8281 -16.484 l20.918 0 l-1.6797 7.4023 l-11.152 0 l-0.58594 2.5 l10.254 0 l-1.5039 6.582 l1.9922 0 l-0.17578 0.78125 l-10.273 0 l-1.0352 4.5703 l11.113 0 l-1.6797 7.3828 l-20.957 0 z M50.312125 27.266 l-2.8906 12.734 l-9.2383 0 l0.15625 -1.0352 c-8.8281 3.5547 -12.344 -1.7578 -10.469 -9.7852 c0.13672 -0.64453 0.25391 -1.2305 0.52734 -1.9141 l-2.168 0 c2.168 -5.957 8.125 -11.777 14.805 -9.375 l0.039063 0 l1.7383 -7.5391 l9.1406 0 l-3.8672 16.914 l2.2266 0 z M35.019125 27.266 l2.207 0 c-1.6406 3.2031 -1.3867 7.4805 2.5391 5.8008 l1.3672 -5.8008 l-2.2266 0 l0.66406 -2.8125 c-1.9336 -0.44922 -3.6133 0.91797 -4.5508 2.8125 z M39.766125 33.0664 c0.097656 -0.039063 0.19531 -0.097656 0.25391 -0.13672 c0 0 -0.058594 0.039063 -0.25391 0.13672 z M54.0820625 27.578 l-2.1094 0 c0.85938 -3.75 1.8945 -7.5586 2.3438 -9.375 l9.2773 0 l-1.9336 9.375 l2.1289 0 l-1.0352 4.8828 c-0.46875 2.1094 2.0117 1.5625 2.3828 0.56641 l1.25 -5.4492 l-2.0703 0 l2.1094 -9.375 l9.2969 0 l-2.1484 9.375 l2.1094 0 l-2.832 12.422 l-9.2969 0 l0.097656 -0.48828 c-3.7109 1.3086 -10.195 1.4844 -10.879 -3.418 c-0.17578 -1.4844 0.48828 -4.9609 1.3086 -8.5156 z M104.49240625 27.266 l-2.9102 12.715 l-9.082 0 l-3.8672 -12.715 l-0.44922 0 l-2.9492 12.715 l-9.1992 0 l2.9492 -12.715 l-1.7773 0 l3.7695 -16.367 l10.723 0 l3.1641 10.273 l2.4023 -10.273 l9.2383 0 l-3.7891 16.367 l1.7773 0 z M130.390625 29.082 c-1.6211 7.1094 -6.8164 11.641 -14.199 11.641 c-7.207 0 -10.547 -4.3359 -8.8672 -11.641 c0.13672 -0.58594 0.29297 -1.1914 0.52734 -1.7383 l-2.0117 0 c2.0898 -6.1914 7.0313 -9.9414 13.75 -9.9414 c6.9141 0 9.8633 4.043 9.1406 9.9414 l1.9727 0 c-0.058594 0.54688 -0.17578 1.1523 -0.3125 1.7383 z M115.195625 27.344 l1.9531 0 c-1.1133 2.9297 -1.3281 6.7578 0.60547 6.7578 c1.7773 0 3.3594 -3.8281 3.5938 -6.7578 l-1.9336 0 c0.15625 -1.8359 -0.21484 -3.3203 -1.3672 -3.3203 c-1.0742 0 -2.1484 1.4844 -2.8516 3.3203 z M134.14061875 27.578 l-2.1289 0 l0.625 -2.8906 l-2.3047 0 l1.4844 -6.4844 l2.3633 0 l1.3086 -5.7227 l9.2773 0 l-1.3086 5.7227 l5.8203 0 l-1.4844 6.4844 l-5.8789 0 c-0.17578 0.99609 -0.39063 1.8945 -0.625 2.8906 l2.1094 0 c-0.39063 1.6797 -0.80078 3.3398 -1.1523 5.0391 c-0.72266 3.3008 1.875 3.0273 2.8711 0.99609 l2.7148 0 l-1.5234 6.7578 c-2.7539 0.23438 -7.2656 0.58594 -10.332 -0.039063 c-3.5547 -0.76172 -3.8281 -4.1406 -3.1055 -7.3438 z M151.36721875 29.141 c0.15625 -0.66406 0.37109 -1.25 0.56641 -1.875 l-2.168 0 c4.6875 -12.754 24.766 -14.023 22.168 0 l2.1875 0 c-0.039063 0.23438 -0.039063 0.46875 -0.097656 0.72266 l-0.83984 3.2617 l-12.93 0 c-0.66406 4.8242 8.4961 3.3594 9.3945 1.6211 l2.9883 0 l-1.4258 5.5664 c-7.7148 4.4336 -22.715 3.3203 -19.844 -9.2969 z M165.21471875 25.371000000000002 c0.42969 -2.1289 -4.2578 -3.3398 -6.4648 0 c0.019531 0 6.4648 0.019531 6.4648 0 z M193.3206875 27.266 c1.582 1.2109 2.1484 2.9883 1.582 5.4297 c-1.8945 8.4961 -14.297 9.4141 -20.898 5.6641 l1.582 -6.7578 l2.6563 0 c0.29297 1.6016 3.2422 3.2227 6.1719 2.5195 c1.8164 -0.48828 1.1133 -1.1328 -0.13672 -1.4844 c-1.8555 -0.50781 -4.8242 -0.27344 -6.6992 -3.2422 c-0.37109 -0.60547 -0.56641 -1.4063 -0.60547 -2.1289 l-1.8359 0 c-0.11719 -1.7969 0.60547 -3.6914 1.582 -5.0195 c4.1602 -5.4297 12.832 -5.9375 18.613 -2.8125 l-1.4258 6.1328 l-2.7344 0 c-0.78125 -1.3477 -5.0781 -2.6172 -6.2695 -1.5625 c-0.41016 0.41016 -0.13672 1.1328 1.9336 1.5234 c0.82031 0.15625 1.7383 0.33203 2.5391 0.60547 c0.83984 0.33203 1.543 0.70313 2.1289 1.1328 l1.8164 0 z M223.555 27.344 l-2.9688 12.734 l-9.7852 0 l2.7734 -11.953 l-5.6641 0 l-2.793 11.953 l-9.8438 0 l2.9492 -12.734 l-1.9727 0 l3.7695 -16.484 l9.8438 0 l-2.2461 9.9023 l5.6445 0 l2.2852 -9.9023 l9.8047 0 l-3.8086 16.484 l2.0117 0 z M227.38284375 27.578 l-2.1094 0 c0.85938 -3.75 1.8945 -7.5586 2.3438 -9.375 l9.2773 0 l-1.9336 9.375 l2.1289 0 l-1.0352 4.8828 c-0.46875 2.1094 2.0117 1.5625 2.3828 0.56641 l1.25 -5.4492 l-2.0703 0 l2.1094 -9.375 l9.2969 0 l-2.1484 9.375 l2.1094 0 l-2.832 12.422 l-9.2969 0 l0.097656 -0.48828 c-3.7109 1.3086 -10.195 1.4844 -10.879 -3.418 c-0.17578 -1.4844 0.48828 -4.9609 1.3086 -8.5156 z M258.6911875 27.266 l2.168 0 l-1.4453 6.3867 c2.832 0.58594 4.9414 -3.457 5.0781 -6.3867 l-2.207 0 c0.11719 -2.0313 -0.74219 -3.4766 -3.0859 -2.3633 z M271.4841875 27.266 l2.2266 0 c-0.097656 0.50781 -0.21484 1.0352 -0.3125 1.4844 c-1.9141 8.2617 -7.1289 12.754 -15.703 10.645 l-0.078125 0.60547 l-8.8867 0 l2.9883 -12.734 l-2.2461 0 l3.9258 -16.914 l9.1797 0 l-1.875 8.0859 c7.793 -3.3203 11.973 1.1523 10.781 8.8281 z"></path></g><g id="SvgjsG3070" featureKey="sloganFeature-0" transform="matrix(0.55,0,0,0.55,59.580790066719054,32.16014249324799)" fill="#435c7f"><path d="M14.395 13.6328 l1.0938 0 c-1.0645 3.1445 -3.7793 5.6152 -7.0801 6.1914 c-2.4316 0.3418 -5.1758 0.17578 -7.6465 0.17578 l1.4648 -6.3672 l-1.084 0 l1.8848 -8.2031 c1.9531 0 6.8945 -0.30273 8.8477 0.52734 c2.7051 1.1621 3.3789 4.1211 2.7539 6.7578 c-0.048828 0.3125 -0.12695 0.625 -0.23438 0.91797 z M7.1289 9.033 l-1.0547 4.5996 l1.084 0 l-0.63477 2.7344 c2.1191 0 3.3008 -0.80078 3.9551 -2.7344 l-1.084 0 c0.10742 -0.26367 0.18555 -0.57617 0.27344 -0.94727 c0.60547 -2.5293 -0.13672 -3.6523 -2.5391 -3.6523 z M21.94336875 13.6719 l-1.4648 6.3672 l-4.9414 0 l1.4648 -6.3672 l-0.99609 0 l1.9141 -8.2422 l4.9316 0 l-1.8945 8.2422 l0.98633 0 z M35.6934375 13.3594 c0.56641 2.0508 -1.1328 4.4727 -2.7051 5.5371 c-3.0859 2.0215 -7.1582 1.6992 -10.313 0.078125 l0.91797 -4.0625 l1.5137 0 c0.19531 2.0996 4.8926 2.9688 5.3711 0.89844 c0.23438 -1.0254 -3.4473 -1.3086 -4.6777 -2.2754 c-0.068359 -0.058594 -0.14648 -0.11719 -0.20508 -0.17578 l-0.89844 0 c-0.97656 -0.91797 -1.0645 -2.1387 -0.78125 -3.4082 c1.1914 -5.2051 8.2617 -5.7227 12.344 -3.6621 l-0.9082 3.9551 l-1.5234 0 c0.097656 -1.4844 -4.3945 -2.5 -4.8145 -0.71289 c-0.2832 1.3867 4.2676 0.97656 5.5273 3.1738 c0.10742 0.19531 0.19531 0.42969 0.25391 0.6543 l0.89844 0 z M40.488253125 13.6328 l1.1133 0 c-0.17578 2.3535 1.4258 4.1211 5.9375 1.2207 l1.4648 0 l-0.91797 3.9844 c-4.9512 2.8516 -12.295 1.9922 -11.221 -5.2051 l-1.1035 0 c0.058594 -0.26367 0.11719 -0.57617 0.19531 -0.91797 c0.99609 -4.3652 4.3262 -7.5391 8.9648 -7.5391 c2.5586 0 4.0332 0.73242 4.9121 1.3379 l-0.94727 4.082 l-1.5723 0 c-3.5352 -3.8086 -6.5918 0.078125 -6.8262 3.0371 z M63.994546875 12.8418 c-0.078125 0.3125 -0.16602 0.625 -0.2832 0.94727 l1.0645 0 c-1.2402 3.877 -4.3945 6.6895 -8.7207 6.6895 c-4.4629 0 -6.2012 -2.8125 -5.6348 -6.6895 l-1.0352 0 c0.039063 -0.32227 0.087891 -0.63477 0.15625 -0.94727 c1.0352 -4.4629 4.2676 -7.6563 8.9648 -7.6563 c4.5996 0 6.4941 3.2227 5.4883 7.6563 z M59.706546875 13.789100000000001 l-1.0547 0 c0.097656 -0.32227 0.19531 -0.63477 0.26367 -0.9668 c1.2402 -5.3613 -3.0859 -5.2051 -4.2969 0.019531 c-0.068359 0.3418 -0.11719 0.6543 -0.16602 0.94727 l1.0547 0 c-0.50781 4.082 2.8223 3.9941 4.1992 0 z M75.566375 13.3594 l-3.75 6.6797 l-4.7168 0 l-0.69336 -6.6797 l-0.89844 0 l-0.83984 -7.9785 l5.1074 0 l0.5957 7.041 c1.3184 -2.3145 2.5098 -4.7363 3.8184 -7.041 l4.9805 0 l-4.4824 7.9785 l0.87891 0 z M78.486325 13.6719 l-0.99609 0 l1.9141 -8.2422 l10.459 0 l-0.83984 3.7012 l-5.5762 0 l-0.29297 1.25 l5.127 0 l-0.75195 3.291 l0.99609 0 l-0.087891 0.39063 l-5.1367 0 l-0.51758 2.2852 l5.5566 0 l-0.83984 3.6914 l-10.479 0 z M90.4784875 13.3594 l-0.88867 0 l1.8164 -7.9785 c1.6992 0 4.7656 -0.16602 7.1875 0.15625 c2.1387 0.3125 4.209 1.1035 3.8477 3.6719 c-0.20508 1.5527 -1.3965 3.1445 -2.6855 4.1504 l0.87891 0 c-0.23438 0.17578 -0.46875 0.36133 -0.72266 0.48828 l3.3398 6.1914 l-5.8594 0 l-2.4414 -4.7754 l-1.084 4.7754 l-4.9219 0 z M95.5175875 8.994 l-0.5957 2.5195 c2.3535 0 3.6719 -2.5195 0.5957 -2.5195 z M104.589796875 16.748 l4.873 0 l-3.8965 5.2246 l-3.3496 0 z M111.17191875 13.6328 l-0.89844 0 l1.875 -8.1836 l4.9023 0 l-1.8945 8.1836 l0.9082 0 l-0.64453 2.666 l5.4199 0 l-0.83984 3.6914 l-10.303 0 z M122.128903125 13.6719 l-0.99609 0 l1.9141 -8.2422 l10.459 0 l-0.83984 3.7012 l-5.5762 0 l-0.29297 1.25 l5.127 0 l-0.75195 3.291 l0.99609 0 l-0.087891 0.39063 l-5.1367 0 l-0.51758 2.2852 l5.5566 0 l-0.83984 3.6914 l-10.479 0 z M134.716765625 13.6328 l-1.123 0 l4.5898 -8.1934 l4.873 0 l0.79102 8.1934 l1.0938 0 l0.61523 6.3574 l-5.0293 0 l-0.20508 -2.7441 l-2.7832 0 c-0.48828 0.9082 -0.94727 1.8262 -1.4355 2.7441 l-4.9414 0 z M140.195265625 13.837900000000001 l0 -0.20508 l-1.0645 0 l0.019531 -3.2422 l-1.3086 3.2422 l1.084 0 l-0.078125 0.20508 l1.3477 0 z M147.37301875 13.3594 l-0.88867 0 l1.8164 -7.9785 c1.6992 0 4.7656 -0.16602 7.1875 0.15625 c2.1387 0.3125 4.209 1.1035 3.8477 3.6719 c-0.20508 1.5527 -1.3965 3.1445 -2.6855 4.1504 l0.87891 0 c-0.23438 0.17578 -0.46875 0.36133 -0.72266 0.48828 l3.3398 6.1914 l-5.8594 0 l-2.4414 -4.7754 l-1.084 4.7754 l-4.9219 0 z M152.41211875 8.994 l-0.5957 2.5195 c2.3535 0 3.6719 -2.5195 0.5957 -2.5195 z M174.824328125 13.6328 l-1.4551 6.3574 l-4.541 0 l-1.9336 -6.3574 l-0.22461 0 l-1.4746 6.3574 l-4.5996 0 l1.4746 -6.3574 l-0.88867 0 l1.8848 -8.1836 l5.3613 0 l1.582 5.1367 l1.2012 -5.1367 l4.6191 0 l-1.8945 8.1836 l0.88867 0 z M176.3964375 16.748 l4.873 0 l-3.8965 5.2246 l-3.3496 0 z M182.851559375 13.6719 l-0.99609 0 l1.9141 -8.2422 l10.459 0 l-0.83984 3.7012 l-5.5762 0 l-0.29297 1.25 l5.127 0 l-0.75195 3.291 l0.99609 0 l-0.087891 0.39063 l-5.1367 0 l-0.51758 2.2852 l5.5566 0 l-0.83984 3.6914 l-10.479 0 z M205.078421875 13.3594 l2.5684 6.6797 l-5.5957 0 l-1.2012 -3.3789 c-0.9082 1.084 -1.9141 2.2559 -2.7441 3.3789 l-5.4785 0 l5.6934 -6.6797 l-0.87891 0 l0.60547 -0.70313 c-1.0156 -2.373 -1.7969 -4.8926 -2.7832 -7.2754 l5.6055 0 l1.1035 3.125 c0.80078 -1.0547 1.7188 -2.0508 2.5488 -3.125 l5.459 0 l-6.1035 7.1582 l0.3418 0.82031 l0.85938 0 z M211.220675 13.6328 l1.1133 0 c-0.17578 2.3535 1.4258 4.1211 5.9375 1.2207 l1.4648 0 l-0.91797 3.9844 c-4.9512 2.8516 -12.295 1.9922 -11.221 -5.2051 l-1.1035 0 c0.058594 -0.26367 0.11719 -0.57617 0.19531 -0.91797 c0.99609 -4.3652 4.3262 -7.5391 8.9648 -7.5391 c2.5586 0 4.0332 0.73242 4.9121 1.3379 l-0.94727 4.082 l-1.5723 0 c-3.5352 -3.8086 -6.5918 0.078125 -6.8262 3.0371 z M221.20116875 13.6719 l-0.99609 0 l1.9141 -8.2422 l10.459 0 l-0.83984 3.7012 l-5.5762 0 l-0.29297 1.25 l5.127 0 l-0.75195 3.291 l0.99609 0 l-0.087891 0.39063 l-5.1367 0 l-0.51758 2.2852 l5.5566 0 l-0.83984 3.6914 l-10.479 0 z M233.24223125 13.6328 l-0.89844 0 l1.875 -8.1836 l4.9023 0 l-1.8945 8.1836 l0.9082 0 l-0.64453 2.666 l5.4199 0 l-0.83984 3.6914 l-10.303 0 z"></path></g>
			</g>
		</svg>
	